# xmcd
#
# Track frame offsets:
#	150
#	23072
#	41355
#	60142
#	80077
#	98665
#	117307
#	145395
#	164602
#	185115
#	203332
#	220152
#	238477
#	255320
#	275757
#
# Disc length: 3895 seconds
#
# Revision: 1
# Processed by: cddbd v1.5.1PL0 Copyright (c) Steve Scherf et al.
# Submitted via: CDex 1.50Beta5
#
DISCID=d40f350f
DTITLE=石川優子 - Yuko Ishikawa Single Collections(1985-1988) 春でも夏でも
DYEAR=1989
DGENRE=
TTITLE0=約束のアルカディア
TTITLE1=目撃者
TTITLE2=ドリーミー・ドリーマー
TTITLE3=時を置いて
TTITLE4=ビーナスは泣かない
TTITLE5=夢色気流’87
TTITLE6=ニールサイモンも読みかけのままで
TTITLE7=夏のボサノバ
TTITLE8=第二章
TTITLE9=愛を振り向かないで
TTITLE10=愛をそのままにして-君へ-
TTITLE11=涙のロートレック
TTITLE12=左手の指輪
TTITLE13=春でも夏でもない季節
TTITLE14=媚薬とナイフ
EXTD=
EXTT0=
EXTT1=
EXTT2=
EXTT3=
EXTT4=
EXTT5=
EXTT6=
EXTT7=
EXTT8=
EXTT9=
EXTT10=
EXTT11=
EXTT12=
EXTT13=
EXTT14=
PLAYORDER=
